# File created by Blade
# Date/Time:  Tue Jan 27 20:02:46 2015
#---------------------------------------------------------
:version 1.10
:name HOM
:units
  mass 1.0
  length 1.000000
  angle deg
:documentation
     Acclaim Skeleton File
:root
   axis xyz
   order TX TY TZ RX RY RZ
   position 0.000000 0.000000 0.000000
   orientation 0 0 0
:bonedata
   begin
      id 1
      name Spine_dum
      direction 0.000000 1.000000 0.000000
      length 6.116652
      axis 0.0 0.0 0.0 xyz
   end
   begin
      id 2
      name LeftUpLeg_dum
      direction 1.000000 0.000000 0.000000
      length 4.711765
      axis 0.0 0.0 0.0 xyz
   end
   begin
      id 3
      name RightUpLeg_dum
      direction -1.000000 0.000000 0.000000
      length 4.711765
      axis 0.0 0.0 0.0 xyz
   end
   begin
      id 4
      name Spine
      direction 0.000000 1.000000 0.000000
      length 0.000000
      axis 0.0 0.0 0.0 xyz
      dof rx ry rz
   end
   begin
      id 5
      name Spine_dum1
      direction 0.000000 1.000000 0.000000
      length 15.225563
      axis 0.0 0.0 0.0 xyz
   end
   begin
      id 6
      name Spine_dum2
      direction 0.000000 1.000000 0.000000
      length 8.977654
      axis 0.0 0.0 0.0 xyz
   end
   begin
      id 7
      name Spine_dum3
      direction 0.000000 1.000000 0.000000
      length 8.977654
      axis 0.0 0.0 0.0 xyz
   end
   begin
      id 8
      name Head
      direction 0.000000 1.000000 0.000000
      length 4.527550
      axis 0.0 0.0 0.0 xyz
      dof rx ry rz
   end
   begin
      id 9
      name LeftShoulder
      direction 1.000000 0.000000 0.000000
      length 7.110130
      axis 0.0 0.0 -90.0 xyz
      dof rx ry rz
   end
   begin
      id 10
      name LeftArm
      direction 1.000000 0.000000 0.000000
      length 10.398341
      axis 0.0 0.0 -90.0 xyz
      dof rx ry rz
   end
   begin
      id 11
      name LeftForeArm
      direction 1.000000 0.000000 0.000000
      length 8.888997
      axis 0.0 0.0 -90.0 xyz
      dof ry rz rx
   end
   begin
      id 12
      name LeftHand
      direction 0.000000 0.000000 0.000000
      length 0.000000
      axis 0.0 0.0 -90.0 xyz
      dof rx ry rz
   end
   begin
      id 13
      name LeftHand_dum1
      direction 0.000000 0.000000 0.000000
      length 0.000000
      axis 0.0 0.0 -90.0 xyz
   end
   begin
      id 14
      name LeftHand_dum2
      direction 1.000000 0.000000 0.000000
      length 3.937000
      axis 0.0 0.0 -90.0 xyz
   end
   begin
      id 15
      name LeftHandThumb1
      direction 0.000000 0.000000 1.000000
      length 3.937000
      axis 0.0 0.0 -90.0 xyz
      dof rx rz ry
   end
   begin
      id 16
      name RightShoulder
      direction -1.000000 0.000000 0.000000
      length 7.110130
      axis 0.0 0.0 90.0 xyz
      dof rx ry rz
   end
   begin
      id 17
      name RightArm
      direction -1.000000 0.000000 0.000000
      length 10.398341
      axis 0.0 0.0 90.0 xyz
      dof rx ry rz
   end
   begin
      id 18
      name RightForeArm
      direction -1.000000 0.000000 0.000000
      length 8.888997
      axis 0.0 0.0 90.0 xyz
      dof ry rz rx
   end
   begin
      id 19
      name RightHand
      direction 0.000000 0.000000 0.000000
      length 0.000000
      axis 0.0 0.0 90.0 xyz
      dof rx ry rz
   end
   begin
      id 20
      name RightHand_dum1
      direction 0.000000 0.000000 0.000000
      length 0.000000
      axis 0.0 0.0 90.0 xyz
   end
   begin
      id 21
      name RightHand_dum2
      direction -1.000000 0.000000 0.000000
      length 3.937000
      axis 0.0 0.0 90.0 xyz
   end
   begin
      id 22
      name RightHandThumb1
      direction 0.000000 0.000000 1.000000
      length 3.937000
      axis 0.0 0.0 90.0 xyz
      dof rx rz ry
   end
   begin
      id 23
      name LeftUpLeg
      direction 0.000000 -1.000000 0.000000
      length 15.510451
      axis 0.0 0.0 0.0 xyz
      dof rx ry rz
   end
   begin
      id 24
      name LeftLeg
      direction 0.000000 -1.000000 0.000000
      length 14.858061
      axis 0.0 0.0 0.0 xyz
      dof rx ry rz
   end
   begin
      id 25
      name LeftFoot
      direction 0.000000 -0.258819 0.965926
      length 5.128852
      axis 15.0 0.0 0.0 xyz
      dof rx ry rz
   end
   begin
      id 26
      name LeftToeBase
      direction 0.000000 0.000000 1.000000
      length 2.952750
      axis 0.0 0.0 0.0 xyz
      dof rx ry rz
   end
   begin
      id 27
      name RightUpLeg
      direction 0.000000 -1.000000 0.000000
      length 15.510451
      axis 0.0 0.0 0.0 xyz
      dof rx ry rz
   end
   begin
      id 28
      name RightLeg
      direction 0.000000 -1.000000 0.000000
      length 14.858061
      axis 0.0 0.0 0.0 xyz
      dof rx ry rz
   end
   begin
      id 29
      name RightFoot
      direction 0.000000 -0.258819 0.965926
      length 5.128852
      axis 15.0 0.0 0.0 xyz
      dof rx ry rz
   end
   begin
      id 30
      name RightToeBase
      direction 0.000000 0.000000 1.000000
      length 2.952750
      axis 0.0 0.0 0.0 xyz
      dof rx ry rz
   end
:hierarchy
   begin
      root Spine_dum LeftUpLeg_dum RightUpLeg_dum
      Spine_dum Spine
      LeftUpLeg_dum LeftUpLeg
      RightUpLeg_dum RightUpLeg
      Spine Spine_dum1 Spine_dum2 Spine_dum3
      Spine_dum1 Head
      Spine_dum2 LeftShoulder
      Spine_dum3 RightShoulder
      LeftShoulder LeftArm
      LeftArm LeftForeArm
      LeftForeArm LeftHand
      LeftHand LeftHand_dum1 LeftHand_dum2
      LeftHand_dum1 LeftHandThumb1
      RightShoulder RightArm
      RightArm RightForeArm
      RightForeArm RightHand
      RightHand RightHand_dum1 RightHand_dum2
      RightHand_dum1 RightHandThumb1
      LeftUpLeg LeftLeg
      LeftLeg LeftFoot
      LeftFoot LeftToeBase
      RightUpLeg RightLeg
      RightLeg RightFoot
      RightFoot RightToeBase
   end

# File created by Blade
# Date/Time:  Tue Jan 27 20:02:37 2015
# Frame Rate: 120.000 fps
#------------------------------------------------------
:FULLY-SPECIFIED
:DEGREES
660
root 8.734802 32.118496 4.475028 -8.775459 38.268709 1.181291
Spine 8.398774 -13.424450 -4.812637
Head 10.409766 -19.562505 5.554293
LeftShoulder -10.184923 -5.122431 30.927117
LeftArm -4.141116 -0.842791 -83.690414
LeftForeArm -8.465918 0.000000 112.292328
LeftHand 13.573210 0.000000 4.849121
LeftHandThumb1 -26.253704 0.000000 33.147579
RightShoulder -23.188787 -19.312817 -20.612268
RightArm 9.208065 -23.822617 93.102950
RightForeArm -11.262715 -0.000000 14.915819
RightHand 16.467301 -0.000000 10.185466
RightHandThumb1 -24.326973 -0.000000 -32.862282
LeftUpLeg 16.591001 -7.379127 -10.604304
LeftLeg -1.520873 -0.000000 0.000000
LeftFoot -11.062331 4.745551 -14.385675
LeftToeBase 24.161980 -0.000000 -0.000000
RightUpLeg -41.466175 16.579522 10.598953
RightLeg 61.191672 -0.000000 -0.000000
RightFoot 14.537002 -21.705768 14.582652
RightToeBase 18.148387 -0.000000 -0.000000
661
root 8.706201 32.117788 4.467414 -8.827421 38.187722 1.244182
Spine 8.572659 -13.428796 -5.030241
Head 10.485668 -19.499108 5.614680
LeftShoulder -10.200922 -5.199027 30.966249
LeftArm -4.060889 -0.889679 -83.592426
LeftForeArm -8.441148 -0.000000 112.236285
LeftHand 13.548571 -0.000000 4.877065
LeftHandThumb1 -26.253704 0.000000 33.147579
RightShoulder -23.189807 -19.221858 -20.629796
RightArm 9.142612 -23.834989 93.153380
RightForeArm -11.148025 -0.000000 14.919224
RightHand 16.441630 -0.000000 10.425084
RightHandThumb1 -24.326973 -0.000000 -32.862282
LeftUpLeg 16.603564 -7.327426 -10.626782
LeftLeg -1.456188 -0.000000 0.000000
LeftFoot -11.091493 4.786928 -14.428446
LeftToeBase 24.150544 -0.000000 -0.000000
RightUpLeg -41.265409 16.556781 10.693365
RightLeg 57.808688 -0.000000 -0.000000
RightFoot 14.764742 -21.711269 15.087355
RightToeBase 18.475052 -0.000000 -0.000000
662
root 8.682467 32.116515 4.462031 -8.889148 38.073376 1.302177
Spine 8.730479 -13.416859 -5.223266
Head 10.585563 -19.389335 5.653393
LeftShoulder -10.212576 -5.303822 30.998119
LeftArm -4.031182 -0.923410 -83.486713
LeftForeArm -8.383530 -0.000000 112.194422
LeftHand 13.450200 -0.000000 4.952246
LeftHandThumb1 -26.253704 0.000000 33.147579
RightShoulder -23.180328 -19.235862 -20.632651
RightArm 9.158088 -23.862228 93.173974
RightForeArm -11.409745 -0.000000 14.947015
RightHand 16.450380 -0.000000 10.073702
RightHandThumb1 -24.326973 -0.000000 -32.862282
LeftUpLeg 16.647918 -7.258966 -10.654092
LeftLeg -1.423566 -0.000000 0.000000
LeftFoot -11.117880 4.850024 -14.475220
LeftToeBase 24.192651 -0.000000 -0.000000
RightUpLeg -41.004313 16.519858 10.814409
RightLeg 54.390640 -0.000000 -0.000000
RightFoot 15.046451 -21.651978 15.618749
RightToeBase 18.720056 -0.000000 -0.000000
663
root 8.659988 32.115297 4.457184 -8.943330 37.970921 1.347613
Spine 8.859780 -13.435408 -5.398394
Head 10.698330 -19.276892 5.681610
LeftShoulder -10.233694 -5.359712 31.014961
LeftArm -3.973299 -0.972084 -83.373780
LeftForeArm -8.365573 -0.000000 112.157424
LeftHand 13.344284 -0.000000 5.043307
LeftHandThumb1 -26.253704 0.000000 33.147579
RightShoulder -23.171254 -19.232919 -20.655998
RightArm 9.201383 -23.955920 93.180101
RightForeArm -11.433215 0.000000 14.852841
RightHand 16.525199 -0.000000 10.081239
RightHandThumb1 -24.326973 -0.000000 -32.862282
LeftUpLeg 16.686089 -7.179857 -10.666471
LeftLeg -1.406809 -0.000000 0.000000
LeftFoot -11.137730 4.895377 -14.503440
LeftToeBase 24.240327 -0.000000 -0.000000
RightUpLeg -40.736705 16.485520 10.952011
RightLeg 50.983792 -0.000000 -0.000000
RightFoot 15.369879 -21.367447 15.905494
RightToeBase 18.503013 -0.000000 -0.000000
664
root 8.636885 32.113771 4.449502 -8.974494 37.875367 1.400960
Spine 8.975695 -13.453280 -5.581146
Head 10.805118 -19.159520 5.735276
LeftShoulder -10.214318 -5.345952 31.033426
LeftArm -3.864081 -1.061187 -83.266469
LeftForeArm -8.344178 -0.000000 112.125510
LeftHand 13.300230 -0.000000 5.048312
LeftHandThumb1 -26.253704 0.000000 33.147579
RightShoulder -23.149807 -19.201630 -20.672906
RightArm 9.198770 -23.971081 93.183842
RightForeArm -11.384149 -0.000000 14.821918
RightHand 16.402081 -0.000000 10.138374
RightHandThumb1 -24.326973 -0.000000 -32.862282
LeftUpLeg 16.703772 -7.138552 -10.694115
LeftLeg -1.390785 -0.000000 0.000000
LeftFoot -11.146320 4.984488 -14.490345
LeftToeBase 24.120564 -0.000000 -0.000000
RightUpLeg -40.481342 16.490964 11.086575
RightLeg 47.605947 -0.000000 -0.000000
RightFoot 15.620534 -20.955752 15.977391
RightToeBase 18.513237 -0.000000 -0.000000
665
root 8.612124 32.111967 4.440416 -8.985385 37.749500 1.460760
Spine 9.082742 -13.424126 -5.761491
Head 10.874290 -19.073330 5.822784
LeftShoulder -10.223923 -5.449618 31.061732
LeftArm -3.814922 -1.106173 -83.145790
LeftForeArm -8.322246 -0.000000 112.067736
LeftHand 13.270012 -0.000000 5.022115
LeftHandThumb1 -26.253704 0.000000 33.147579
RightShoulder -23.122937 -19.126136 -20.695503
RightArm 9.091242 -23.859820 93.254945
RightForeArm -11.546886 0.000000 14.811385
RightHand 16.399897 -0.000000 10.110637
RightHandThumb1 -24.326973 -0.000000 -32.862282
LeftUpLeg 16.705265 -7.057632 -10.713879
LeftLeg -1.386168 -0.000000 0.000000
LeftFoot -11.156827 5.065814 -14.480037
LeftToeBase 24.055887 -0.000000 -0.000000
RightUpLeg -40.229355 16.486169 11.237947
RightLeg 44.215121 -0.000000 -0.000000
RightFoot 15.955551 -20.288434 15.718978
RightToeBase 18.319759 -0.000000 -0.000000
666
root 8.586637 32.109700 4.430171 -8.989753 37.623018 1.526035
Spine 9.200263 -13.338386 -5.933427
Head 10.885196 -19.040360 5.922725
LeftShoulder -10.210694 -5.582941 31.088212
LeftArm -3.761232 -1.163329 -83.031348
LeftForeArm -8.275649 -0.000000 112.018164
LeftHand 13.157602 0.000000 4.906019
LeftHandThumb1 -26.253704 0.000000 33.147579
RightShoulder -23.172904 -19.132296 -20.653267
RightArm 9.086118 -23.797027 93.264308
RightForeArm -11.649749 -0.000000 14.793556
RightHand 16.371752 -0.000000 10.195058
RightHandThumb1 -24.326973 -0.000000 -32.862282
LeftUpLeg 16.696295 -6.910165 -10.712886
LeftLeg -1.377636 -0.000000 0.000000
LeftFoot -11.165497 5.051466 -14.516091
LeftToeBase 24.193758 -0.000000 -0.000000
RightUpLeg -39.970606 16.489296 11.419977
RightLeg 40.852612 -0.000000 -0.000000
RightFoot 16.146155 -19.729017 15.614468
RightToeBase 18.709405 -0.000000 -0.000000
667
root 8.561590 32.108175 4.420566 -8.985422 37.503878 1.581748
Spine 9.291302 -13.237136 -6.086696
Head 10.921132 -19.001830 6.017988
LeftShoulder -10.163022 -5.830742 31.094946
LeftArm -3.816491 -1.229781 -82.894609
LeftForeArm -8.262936 0.000000 111.990340
LeftHand 13.041210 -0.000000 4.889931
LeftHandThumb1 -26.253704 0.000000 33.147579
RightShoulder -23.250255 -19.147901 -20.599119
RightArm 9.090893 -23.755680 93.255398
RightForeArm -11.690678 0.000000 14.711139
RightHand 16.431560 -0.000000 10.194684
RightHandThumb1 -24.326973 -0.000000 -32.862282
LeftUpLeg 16.682207 -6.779455 -10.706947
LeftLeg -1.384731 -0.000000 0.000000
LeftFoot -11.150652 5.082966 -14.476994
LeftToeBase 24.149998 -0.000000 -0.000000
RightUpLeg -39.699990 16.523667 11.587331
RightLeg 37.508126 -0.000000 -0.000000
RightFoot 16.257300 -19.128217 15.724545
RightToeBase 18.613242 -0.000000 -0.000000
668
root 8.538173 32.106387 4.410671 -8.990549 37.381577 1.626571
Spine 9.398632 -13.217676 -6.225232
Head 10.917206 -18.902404 6.103534
LeftShoulder -10.190691 -5.956145 31.092541
LeftArm -3.801384 -1.324038 -82.785616
LeftForeArm -8.237779 -0.000000 111.959705
LeftHand 12.950371 -0.000000 4.916419
LeftHandThumb1 -26.253704 0.000000 33.147579
RightShoulder -23.227201 -19.098376 -20.609448
RightArm 9.016040 -23.599861 93.296396
RightForeArm -11.664175 0.000000 14.693242
RightHand 16.452886 -0.000000 10.299792
RightHandThumb1 -24.326973 -0.000000 -32.862282
LeftUpLeg 16.668634 -6.599544 -10.683289
LeftLeg -1.387798 -0.000000 0.000000
LeftFoot -11.129967 5.029252 -14.535309
LeftToeBase 24.129246 -0.000000 -0.000000
RightUpLeg -39.424231 16.590613 11.757710
RightLeg 34.181901 -0.000000 -0.000000
RightFoot 16.365089 -18.801015 15.997845
RightToeBase 18.267242 -0.000000 -0.000000
669
root 8.516405 32.103665 4.399775 -9.005471 37.244451 1.688386
Spine 9.530430 -13.109794 -6.377384
Head 10.897789 -18.812087 6.226189
LeftShoulder -10.164621 -6.069968 31.118375
LeftArm -3.734124 -1.431688 -82.726628
LeftForeArm -8.163371 -0.000000 111.897521
LeftHand 12.887521 -0.000000 4.961190
LeftHandThumb1 -26.253704 0.000000 33.147579
RightShoulder -23.230884 -19.052655 -20.606675
RightArm 8.921596 -23.361160 93.373251
RightForeArm -11.760148 -0.000000 14.618864
RightHand 16.509560 -0.000000 10.219095
RightHandThumb1 -24.326973 -0.000000 -32.862282
LeftUpLeg 16.669212 -6.420698 -10.688567
LeftLeg -1.364204 -0.000000 0.000000
LeftFoot -11.081820 5.053169 -14.340747
LeftToeBase 23.789947 -0.000000 -0.000000
RightUpLeg -39.121366 16.709540 11.910196
RightLeg 30.889043 -0.000000 -0.000000
RightFoot 16.368226 -18.697426 16.499169
RightToeBase 17.899294 -0.000000 -0.000000
670
root 8.493638 32.101702 4.387033 -8.985981 37.109878 1.751561
Spine 9.627922 -13.045801 -6.512071
Head 10.867625 -18.711043 6.318076
LeftShoulder -10.165009 -6.144450 31.102312
LeftArm -3.664999 -1.585668 -82.642653
LeftForeArm -8.105977 -0.000000 111.849964
LeftHand 12.815918 -0.000000 4.962047
LeftHandThumb1 -26.253704 0.000000 33.147579
RightShoulder -23.257010 -19.106671 -20.578010
RightArm 8.993206 -23.391618 93.357371
RightForeArm -11.689541 -0.000000 14.519389
RightHand 16.531301 -0.000000 9.942143
RightHandThumb1 -24.326973 -0.000000 -32.862282
LeftUpLeg 16.612366 -6.206773 -10.675117
LeftLeg -1.330766 -0.000000 0.000000
LeftFoot -11.105561 4.980425 -14.526619
LeftToeBase 24.132400 -0.000000 -0.000000
RightUpLeg -38.857867 16.810002 12.041205
RightLeg 27.688692 -0.000000 -0.000000
RightFoot 16.133668 -18.830799 17.562471
RightToeBase 18.085516 -0.000000 -0.000000
